<?xml version="1.0" encoding="UTF-8" standalone="no"?>
<!-- Created with Inkscape (http://www.inkscape.org/) -->

<svg
   xmlns:dc="http://purl.org/dc/elements/1.1/"
   xmlns:cc="http://creativecommons.org/ns#"
   xmlns:rdf="http://www.w3.org/1999/02/22-rdf-syntax-ns#"
   xmlns:svg="http://www.w3.org/2000/svg"
   xmlns="http://www.w3.org/2000/svg"
   xmlns:sodipodi="http://sodipodi.sourceforge.net/DTD/sodipodi-0.dtd"
   xmlns:inkscape="http://www.inkscape.org/namespaces/inkscape"
   id="svg2985"
   version="1.1"
   inkscape:version="0.48.4 r9939"
   width="245.81998"
   height="245.98299"
   sodipodi:docname="Cadw logo 2.svg">
  <metadata
     id="metadata2991">
    <rdf:RDF>
      <cc:Work
         rdf:about="">
        <dc:format>image/svg+xml</dc:format>
        <dc:type
           rdf:resource="http://purl.org/dc/dcmitype/StillImage" />
        <dc:title></dc:title>
      </cc:Work>
    </rdf:RDF>
  </metadata>
  <defs
     id="defs2989" />
  <sodipodi:namedview
     pagecolor="#ffffff"
     bordercolor="#666666"
     borderopacity="1"
     objecttolerance="10"
     gridtolerance="20"
     guidetolerance="10"
     inkscape:pageopacity="0"
     inkscape:pageshadow="2"
     inkscape:window-width="1920"
     inkscape:window-height="1005"
     id="namedview2987"
     showgrid="false"
     inkscape:zoom="1.8880733"
     inkscape:cx="218.93527"
     inkscape:cy="79.315567"
     inkscape:window-x="-9"
     inkscape:window-y="-9"
     inkscape:window-maximized="1"
     inkscape:current-layer="layer1"
     fit-margin-top="0"
     fit-margin-left="0"
     fit-margin-right="0"
     fit-margin-bottom="0"
     inkscape:snap-global="false"
     showguides="false">
    <inkscape:grid
       type="xygrid"
       id="grid3007"
       empspacing="5"
       visible="true"
       enabled="true"
       snapvisiblegridlinesonly="true"
       originx="-27.20937px"
       originy="-27.099318px" />
  </sodipodi:namedview>
  <g
     inkscape:groupmode="layer"
     id="layer1"
     inkscape:label="Ring"
     style="display:inline"
     transform="translate(-21.44937,-20.760068)">
    <path
       style="fill:#006d50;fill-opacity:1;stroke:none"
       d="M 89.03125,59.03125 C 77.154118,66.928092 66.887147,77.080175 58.875,88.875 l 22.75,22.75 C 88.773527,99.117259 99.252479,88.777389 111.875,81.8125 L 89.03125,59.03125 z m 122,0 L 189.6875,80.375 c 6.32639,2.721527 12.48512,6.05519 18.5,10 15.75007,-8.817583 21.37031,-16.001111 17.25,-19.75 -4.33493,-4.220762 -9.17155,-8.110387 -14.40625,-11.59375 z M 81.3125,188.75 58.5625,211.5 c 3.980906,5.92865 8.531896,11.46802 13.5625,16.5 5.01937,5.02074 10.525535,9.52438 16.4375,13.5 l 22.75,-22.75 c -12.543043,-7.05659 -22.951983,-17.44929 -30,-30 z M 206.5,206.09375 c -0.418,0.0206 -0.85182,0.0795 -1.3125,0.15625 -4.87901,4.88035 -10.42386,9.07173 -16.46875,12.46875 l 21.0625,21.0625 c 5.21418,-3.73718 9.5901,-7.65802 12.8125,-11.40625 -8.01016,-16.45311 -9.8238,-22.59029 -16.09375,-22.28125 z"
       transform="translate(-5.7600002,-6.1576295)"
       id="path2995"
       inkscape:connector-curvature="0" />
    <path
       style="fill:#006d50;fill-opacity:1;stroke:none;display:inline"
       d="m 144.28898,20.762564 c -15.09668,0.148247 -50.020356,5.841877 -57.456007,13.147064 -4.742878,4.659662 -7.15752,9.749176 -2.100017,14.924784 l 24.311784,24.879515 c 9.58902,9.812955 10.10183,25.182204 0.13242,35.170233 -9.977137,9.99575 -25.002756,9.68022 -35.016871,-0.18726 L 48.989777,83.894954 c -4.886466,-4.814917 -9.552479,-2.795143 -14.829346,2.343228 -7.523248,7.325797 -12.561117,42.609438 -12.708101,57.669158 -0.145381,14.89556 5.076707,50.05405 12.895357,57.48191 4.869455,4.62608 9.96102,7.36375 14.829348,2.53049 l 25.17049,-24.98921 c 10.03985,-9.93687 27.275245,-7.43769 34.829615,0 10.06556,10.07928 10.16465,24.85707 -0.0776,35.07742 l -24.694085,24.6413 c -5.300642,5.28931 -2.19435,10.10682 2.663732,15.26717 7.319776,7.77521 41.833963,12.72921 57.153553,12.82545 15.20386,0.0955 49.73944,-5.60376 57.25232,-12.5729 5.62276,-5.21581 7.4421,-10.49772 2.74129,-15.1452 L 179.10286,214.1952 c -10.28644,-10.16974 -9.76668,-25.45038 0.18726,-35.07741 10.33706,-9.99758 24.96512,-10.52108 35.20412,-0.18726 l 24.38883,24.61469 c 5.5992,5.22601 9.99188,2.53052 15.30177,-2.53048 7.49522,-7.1439 13.20233,-42.62868 13.08266,-57.29465 -0.12066,-14.78646 -5.55534,-50.233346 -13.08266,-57.481908 -4.8716,-4.691189 -10.07709,-7.00746 -14.92725,-2.155972 l -25.13785,24.24018 c -10.2621,10.63925 -25.31656,10.26475 -35.01688,0.56177 -9.70031,-9.702973 -9.6905,-25.194615 -0.009,-34.916772 l 24.70849,-24.81331 c 4.66432,-4.684107 2.42926,-10.205362 -2.28727,-15.00143 -7.2584,-7.380805 -42.50558,-13.534634 -57.2257,-13.390084 z"
       id="path3067"
       inkscape:connector-curvature="0"
       sodipodi:nodetypes="cssssssssssccssssssssscsssccsssssc" />
  </g>
  <g
     inkscape:groupmode="layer"
     id="layer2"
     inkscape:label="Base"
     style="display:inline"
     transform="translate(-21.44937,-20.760068)" />
</svg>
