<?xml version="1.0" encoding="utf-8"?>
<!-- Generator: Adobe Illustrator 19.2.1, SVG Export Plug-In . SVG Version: 6.00 Build 0)  -->
<svg version="1.1" id="layer" xmlns="http://www.w3.org/2000/svg" xmlns:xlink="http://www.w3.org/1999/xlink" x="0px" y="0px"
	 viewBox="0 0 652 652" style="enable-background:new 0 0 652 652;" xml:space="preserve">
<style type="text/css">
	.st0{fill:#D5072D;}
</style>
<g>
	<path d="M295.6,275.8v13h6.2c5.6,0,5.9-1.2,5.9-4.4h1.9v11.4h-1.9c0-3.2-0.3-4.3-5.9-4.3h-6.2V305h6c6.7,0,10-0.5,10.5-5.4h1.9v8
		h-30.3v-2h1.5c4.1,0,4.4-1.3,4.4-4.6v-21.3c0-3-0.2-4.6-4.4-4.6h-1.5v-2h30.3v8H312c-0.4-4.8-3.5-5.4-10.5-5.4H295.6z"/>
	<path d="M340.4,273.1l22.8,25.8h0.2v-19.4c0-3.6-1.1-4.3-4.2-4.3h-1.5v-2H372v2h-1.7c-3,0-4,1-4,4.3v28.2h-3.1l-24.2-27.4h-0.2V301
		c0,3.3,0.7,4.7,4,4.7h1.7v2h-14.3v-2h1.6c3.5,0,4-1.3,4-4.7v-24l-0.8-0.7c-1-0.8-1.4-1.1-3.4-1.1h-1.5v-2H340.4z"/>
	<path d="M414.9,283.6H413c-0.4-4.7-5-8.4-11.2-8.4c-10,0-14,6.9-14,14.9c0,8.6,4.1,15.6,13.9,15.6c3.6,0,5.7-0.9,7.2-1.6v-5.2
		c0-4.3,0.2-5.3-4-5.3h-1.7v-2h17v2H419c-4,0-4,1.5-4,4.9v7.8c-4.1,1.1-7.8,2.1-13,2.1c-16,0-20.7-10.6-20.7-17.9
		c0-7.9,5.3-17.9,20.2-17.9c4.6,0,9,1,13.4,2.2V283.6z"/>
	<path d="M433.3,305.6h1.5c4.3,0,4.4-1.3,4.4-4.6v-21.3c0-3.3-0.3-4.6-4.2-4.6h-1.7v-2h17.9v2h-1.6c-4,0-4.3,1.3-4.3,4.6V305h5.7
		c7.2,0,10.1-0.8,10.5-5.4h1.9v8h-30.1V305.6z"/>
	<path d="M493.2,275.1h-1.6c-4.1,0-4.4,1.3-4.4,4.6V301c0,4.1,1,4.6,4.4,4.6h1.6v2h-17.9v-2h1.6c4.1,0,4.4-1.3,4.4-4.6v-21.3
		c0-3.9-0.8-4.6-4.4-4.6h-1.6v-2h17.9V275.1z"/>
	<path d="M508.6,297.5h1.9c0.9,6.2,5.3,8.2,9.2,8.2c3.7,0,7.4-1.5,7.4-5.2c0-2.4-1.6-4.2-7.2-7.6c-8.8-5.3-11-7.5-11-11.7
		c0-5.1,4.6-8.6,11.7-8.6c4.2,0,7.3,0.9,10.9,1.9v8.8h-1.9c-0.4-2.5-1.3-8-8.6-8c-3.6,0-6.4,1.4-6.4,4.3c0,2.5,1.9,3.8,6.5,6.7
		c9.3,5.9,11.7,8,11.7,12.6c0,4.3-3.3,9.6-12.7,9.6c-5.4,0-9.5-1.3-11.5-2V297.5z"/>
	<path d="M577.8,288.6v-8.9c0-3.5-0.4-4.6-4.4-4.6h-1.6v-2h17.9v2h-1.6c-4.1,0-4.4,1.3-4.4,4.6V301c0,3.5,0.5,4.6,4.4,4.6h1.6v2
		h-17.9v-2h1.6c4,0,4.4-1.1,4.4-4.6v-9.7h-18.5v9.7c0,4.1,1,4.6,4.4,4.6h1.6v2h-17.9v-2h1.6c4.1,0,4.3-1.3,4.3-4.6v-21.3
		c0-3.9-0.7-4.6-4.3-4.6h-1.6v-2h17.9v2h-1.6c-4.1,0-4.4,1.3-4.4,4.6v8.9H577.8z"/>
	<path d="M314.2,357.7v-8.9c0-3.5-0.4-4.6-4.4-4.6h-1.6v-2h17.9v2h-1.6c-4.1,0-4.4,1.3-4.4,4.6v21.3c0,3.5,0.5,4.6,4.4,4.6h1.6v2
		h-17.9v-2h1.6c4,0,4.4-1.1,4.4-4.6v-9.7h-18.5v9.7c0,4.1,1,4.6,4.4,4.6h1.6v2h-17.9v-2h1.6c4.1,0,4.3-1.3,4.3-4.6v-21.3
		c0-3.9-0.7-4.6-4.3-4.6h-1.6v-2h17.9v2H300c-4.1,0-4.4,1.3-4.4,4.6v8.9H314.2z"/>
	<path d="M350.5,344.9v13h6.2c5.6,0,5.9-1.2,5.9-4.4h1.9v11.4h-1.9c0-3.1-0.3-4.3-5.9-4.3h-6.2v13.7h6c6.7,0,10-0.5,10.4-5.4h1.9v8
		h-30.3v-2h1.5c4.1,0,4.4-1.3,4.4-4.6v-21.3c0-3-0.2-4.6-4.4-4.6h-1.5v-2h30.3v8h-1.9c-0.4-4.8-3.5-5.4-10.4-5.4H350.5z"/>
	<path d="M392.7,358.6h4.7c6.5,0,9.6-2.3,9.6-6.9c0-4.7-3.1-6.9-9.6-6.9h-4.7V358.6z M392.7,370.5c0,3.8,1.5,4.3,4.4,4.3h1.6v2
		h-17.9v-2h1.6c3,0,4.4-0.4,4.4-4.2v-21.7c0-3.1,0-4.6-4.4-4.6h-1.6v-2h16.4c6.5,0,16.3,0.1,16.3,9.4c0,5.7-3.9,8.8-9.6,9.3v0.2
		c0.8,0.7,1.7,2.1,2.2,2.8l5.1,7c2.5,3.4,3.1,3.6,5.2,3.7v2h-2.5c-4.2,0-6.3-0.8-8.8-4.4l-5.9-8.4c-1.9-2.6-2.8-2.8-4.2-2.8h-2.4
		V370.5z"/>
	<path d="M447.7,344.3h-1.6c-4.1,0-4.4,1.3-4.4,4.6v21.3c0,4.1,1,4.6,4.4,4.6h1.6v2h-17.9v-2h1.6c4.1,0,4.4-1.3,4.4-4.6v-21.3
		c0-3.9-0.8-4.6-4.4-4.6h-1.6v-2h17.9V344.3z"/>
	<path d="M493.8,350.3h-1.9c-0.4-4.1-2.3-5.4-9.7-5.4h-1.7v25.3c0,3.7,0.6,4.6,4.4,4.6h1.6v2h-17.9v-2h1.6c4.2,0,4.4-1.4,4.4-4.6
		v-25.3h-1.7c-7,0-9.3,1.3-9.7,5.4h-1.9v-8h32.7V350.3z"/>
	<path d="M525,360.5l-5.3-13.5h-0.6l-4.7,13.5H525z M541.2,376.8h-16.5v-2h1.1c1.2,0,3.6-0.2,3.6-2c0-1-0.6-2.6-0.8-3l-2.6-6.6
		h-12.6l-2.1,6c-0.9,2.5-1.1,3-1.1,3.8c0,1.4,1.8,1.8,3.5,1.8h1.2v2h-13.3v-2h0.9c2.9,0,3.8-0.7,5.7-6l9.5-26.6h5.6l11.5,27.2
		c1.8,4.2,2.8,5.3,5.4,5.3h0.9V376.8z"/>
	<path d="M582.9,352.7h-1.9c-0.4-4.7-5-8.4-11.2-8.4c-10,0-14,6.9-14,14.9c0,8.6,4,15.6,13.9,15.6c3.6,0,5.7-0.9,7.2-1.6v-5.2
		c0-4.3,0.2-5.3-4-5.3h-1.7v-2h17v2h-1.1c-4,0-4,1.5-4,4.9v7.8c-4.1,1.1-7.8,2.1-13,2.1c-16,0-20.7-10.6-20.7-17.9
		c0-7.9,5.3-17.9,20.2-17.9c4.6,0,9,1,13.4,2.2V352.7z"/>
	<path d="M607.6,344.9v13h6.2c5.6,0,5.9-1.2,5.9-4.4h1.9v11.4h-1.9c0-3.1-0.3-4.3-5.9-4.3h-6.2v13.7h6c6.7,0,10-0.5,10.4-5.4h1.9v8
		h-30.3v-2h1.5c4.1,0,4.4-1.3,4.4-4.6v-21.3c0-3-0.2-4.6-4.4-4.6h-1.5v-2h30.3v8H624c-0.4-4.8-3.5-5.4-10.4-5.4H607.6z"/>
	<path class="st0" d="M232.1,280.3v-29.9h-28.4v-28.6H174v27.2h-28.7v-24.2h-32.6v24.2H84v-27.2H54.3v28.6H25.9v29.9H53v28.9H29
		v32.8h24v28.9H25.9v29.9h28.4v28.6H84V402h28.7v24.2h32.6V402H174v27.3h29.7v-28.6h28.4v-29.9H205v-28.9h24.1v-32.8H205v-28.9
		H232.1z M173.8,370.6H84.3v-90h89.5V370.6z"/>
</g>
</svg>
