<?xml version="1.0" encoding="utf-8"?>
<!-- Generator: Adobe Illustrator 13.0.0, SVG Export Plug-In . SVG Version: 6.00 Build 14948)  -->
<!DOCTYPE svg PUBLIC "-//W3C//DTD SVG 1.1//EN" "http://www.w3.org/Graphics/SVG/1.1/DTD/svg11.dtd">
<svg version="1.1" id="layer" xmlns="http://www.w3.org/2000/svg" xmlns:xlink="http://www.w3.org/1999/xlink" x="0px" y="0px"
	 width="600px" height="200px" viewBox="0 0 600 200" enable-background="new 0 0 600 200" xml:space="preserve">
<g>
	<path d="M273.465,52.88v12.202h5.819c5.257,0,5.537-1.126,5.537-4.13h1.783v10.7h-1.783c0-3.004-0.28-4.035-5.537-4.035h-5.819
		v12.671h5.632c6.289,0,9.387-0.47,9.855-5.068h1.783v7.509h-28.44v-1.877h1.408c3.849,0,4.13-1.22,4.13-4.317V56.541
		c0-2.816-0.188-4.318-4.13-4.318h-1.408v-1.877h28.44v7.51h-1.878c-0.375-4.506-3.285-5.068-9.854-5.068h-5.538V52.88z"/>
	<path d="M315.516,50.346l21.4,24.217h0.188V56.352c0-3.379-1.033-4.035-3.942-4.035h-1.407v-1.877h13.423v1.877h-1.597
		c-2.815,0-3.755,0.938-3.755,4.035v26.471h-2.91l-22.715-25.719h-0.188v19.43c0,3.098,0.656,4.412,3.754,4.412h1.596v1.877h-13.423
		v-1.877h1.502c3.285,0,3.755-1.221,3.755-4.412V54.006l-0.751-0.656c-0.938-0.752-1.313-1.033-3.19-1.033h-1.408v-1.877h9.668
		V50.346L315.516,50.346z"/>
	<path d="M385.446,60.201h-1.783c-0.375-4.412-4.692-7.885-10.513-7.885c-9.387,0-13.142,6.477-13.142,13.985
		c0,8.073,3.849,14.644,13.048,14.644c3.379,0,5.35-0.846,6.758-1.502v-4.881c0-4.037,0.188-4.976-3.755-4.976h-1.596V67.71h15.957
		v1.877h-1.126c-3.756,0-3.756,1.408-3.756,4.599v7.322c-3.848,1.032-7.32,1.971-12.201,1.971c-15.02,0-19.431-9.949-19.431-16.802
		c0-7.415,4.976-16.802,18.96-16.802c4.318,0,8.448,0.939,12.578,2.064L385.446,60.201L385.446,60.201z"/>
	<path d="M402.717,80.852h1.408c4.035,0,4.13-1.22,4.13-4.317V56.541c0-3.098-0.282-4.318-3.942-4.318h-1.596v-1.877h16.802v1.877
		h-1.502c-3.755,0-4.036,1.221-4.036,4.318v23.748h5.351c6.759,0,9.48-0.75,9.855-5.068h1.783v7.51h-28.253V80.852L402.717,80.852z"
		/>
	<path d="M458.942,52.223h-1.501c-3.849,0-4.131,1.221-4.131,4.318v19.993c0,3.849,0.938,4.317,4.131,4.317h1.501v1.877H442.14
		v-1.877h1.502c3.849,0,4.13-1.22,4.13-4.317V56.541c0-3.661-0.75-4.318-4.13-4.318h-1.502v-1.877h16.802V52.223L458.942,52.223z"/>
	<path d="M473.398,73.249h1.783c0.845,5.819,4.975,7.696,8.636,7.696c3.473,0,6.945-1.407,6.945-4.881
		c0-2.252-1.501-3.941-6.758-7.133c-8.261-4.976-10.325-7.041-10.325-10.982c0-4.787,4.316-8.072,10.981-8.072
		c3.942,0,6.853,0.846,10.231,1.784v8.26h-1.784c-0.375-2.347-1.22-7.509-8.072-7.509c-3.379,0-6.007,1.314-6.007,4.037
		c0,2.346,1.783,3.566,6.102,6.289c8.729,5.537,10.981,7.509,10.981,11.826c0,4.037-3.098,9.012-11.921,9.012
		c-5.068,0-8.917-1.221-10.794-1.877L473.398,73.249L473.398,73.249z"/>
	<path d="M538.352,64.895v-8.354c0-3.285-0.375-4.318-4.13-4.318h-1.502v-1.877h16.802v1.877h-1.502c-3.849,0-4.13,1.221-4.13,4.318
		v19.993c0,3.284,0.47,4.317,4.13,4.317h1.502v1.877H532.72v-1.877h1.502c3.755,0,4.13-1.033,4.13-4.317V67.43h-17.365v9.104
		c0,3.849,0.939,4.317,4.131,4.317h1.501v1.877h-16.802v-1.877h1.502c3.85,0,4.036-1.22,4.036-4.317V56.541
		c0-3.661-0.657-4.318-4.036-4.318h-1.502v-1.877h16.802v1.877h-1.501c-3.849,0-4.131,1.221-4.131,4.318v8.354H538.352z"/>
	<path d="M290.924,129.755V121.4c0-3.284-0.376-4.316-4.13-4.316h-1.502v-1.878h16.802v1.878h-1.502c-3.85,0-4.13,1.221-4.13,4.316
		v19.993c0,3.285,0.469,4.317,4.13,4.317h1.502v1.878h-16.802v-1.878h1.502c3.754,0,4.13-1.032,4.13-4.317v-9.104h-17.365v9.104
		c0,3.85,0.938,4.317,4.13,4.317h1.502v1.878h-16.802v-1.878h1.502c3.85,0,4.036-1.22,4.036-4.317V121.4
		c0-3.66-0.657-4.316-4.036-4.316h-1.502v-1.878h16.802v1.878h-1.596c-3.849,0-4.13,1.221-4.13,4.316v8.354H290.924z"/>
	<path d="M324.995,117.74v12.203h5.82c5.256,0,5.538-1.127,5.538-4.131h1.783v10.7h-1.783c0-2.91-0.282-4.036-5.538-4.036h-5.82
		v12.859h5.633c6.288,0,9.387-0.47,9.763-5.068h1.783v7.51h-28.441V145.9h1.408c3.849,0,4.13-1.222,4.13-4.318v-19.993
		c0-2.815-0.188-4.317-4.13-4.317h-1.408v-1.877h28.441v7.51h-1.783c-0.376-4.506-3.285-5.069-9.763-5.069h-5.633V117.74z"/>
	<path d="M364.608,130.6h4.412c6.101,0,9.011-2.157,9.011-6.477c0-4.411-2.91-6.477-9.011-6.477h-4.412V130.6z M364.608,141.77
		c0,3.567,1.408,4.036,4.13,4.036h1.502v1.878h-16.802v-1.878h1.502c2.816,0,4.13-0.375,4.13-3.941v-20.368
		c0-2.909,0-4.316-4.13-4.316h-1.502v-1.88h15.395c6.102,0,15.301,0.095,15.301,8.823c0,5.351-3.661,8.261-9.013,8.729v0.188
		c0.751,0.657,1.597,1.972,2.065,2.629l4.787,6.57c2.347,3.19,2.91,3.379,4.881,3.473v1.878h-2.347
		c-3.942,0-5.913-0.751-8.261-4.131l-5.537-7.884c-1.783-2.44-2.63-2.629-3.942-2.629h-2.253v8.822L364.608,141.77L364.608,141.77z"
		/>
	<path d="M416.234,117.178h-1.502c-3.849,0-4.13,1.221-4.13,4.317v19.993c0,3.849,0.938,4.316,4.13,4.316h1.502v1.878h-16.802
		v-1.878h1.502c3.848,0,4.13-1.22,4.13-4.316v-19.993c0-3.661-0.751-4.317-4.13-4.317h-1.502V115.3h16.802V117.178z"/>
	<path d="M459.505,122.809h-1.783c-0.376-3.848-2.159-5.067-9.105-5.067h-1.596v23.748c0,3.473,0.563,4.316,4.131,4.316h1.502v1.878
		h-16.803v-1.878h1.502c3.942,0,4.131-1.313,4.131-4.316V117.74h-1.597c-6.57,0-8.729,1.221-9.104,5.068H429V115.3h30.692v7.509
		H459.505z"/>
	<path d="M488.79,132.384l-4.975-12.672h-0.563l-4.412,12.672H488.79z M503.996,147.684H488.51v-1.878h1.032
		c1.126,0,3.379-0.188,3.379-1.877c0-0.938-0.563-2.439-0.751-2.814l-2.44-6.195h-11.827l-1.971,5.632
		c-0.845,2.348-1.033,2.815-1.033,3.566c0,1.313,1.69,1.688,3.286,1.688h1.126v1.878h-12.484v-1.878h0.846
		c2.723,0,3.566-0.655,5.351-5.632l8.917-24.968h5.257l10.795,25.531c1.689,3.941,2.628,4.975,5.068,4.975h0.845v1.972H503.996z"/>
	<path d="M543.139,125.063h-1.783c-0.376-4.412-4.693-7.885-10.513-7.885c-9.388,0-13.143,6.477-13.143,13.985
		c0,8.072,3.755,14.644,13.048,14.644c3.379,0,5.351-0.846,6.759-1.502v-4.882c0-4.036,0.188-4.975-3.756-4.975h-1.596v-1.877
		h15.957v1.877h-1.032c-3.755,0-3.755,1.407-3.755,4.6v7.321c-3.848,1.033-7.321,1.972-12.202,1.972
		c-15.019,0-19.43-9.95-19.43-16.802c0-7.416,4.975-16.803,18.96-16.803c4.318,0,8.448,0.938,12.578,2.064v8.262H543.139
		L543.139,125.063z"/>
	<path d="M566.323,117.74v12.203h5.819c5.257,0,5.538-1.127,5.538-4.131h1.784v10.7h-1.784c0-2.91-0.281-4.036-5.538-4.036h-5.819
		v12.859h5.632c6.289,0,9.388-0.47,9.763-5.068h1.784v7.51H555.06V145.9h1.408c3.849,0,4.13-1.222,4.13-4.318v-19.993
		c0-2.815-0.188-4.317-4.13-4.317h-1.408v-1.877h28.44v7.51h-1.783c-0.375-4.506-3.285-5.069-9.763-5.069h-5.632V117.74
		L566.323,117.74z"/>
	<path fill="#D5072D" d="M213.861,57.104V29.039h-26.656V2.193h-27.878v25.532h-26.939V5.01h-30.6v22.715h-26.94V2.193H46.969
		v26.846H20.311v28.064h25.438V84.23H23.221v30.789h22.527v27.127H20.311v28.064h26.658v26.846h27.878v-25.719h26.938v22.715h30.601
		v-22.715h26.939v25.625h27.878v-26.846h26.656v-28.065h-25.438v-27.128h22.622V84.137h-22.622V57.01h25.438L213.861,57.104
		L213.861,57.104z M159.137,141.864H75.128V57.385h84.009V141.864z"/>
</g>
</svg>
