<?xml version="1.0" encoding="UTF-8" standalone="no"?>
<!-- Created with Inkscape (http://www.inkscape.org/) -->

<svg
   xmlns:dc="http://purl.org/dc/elements/1.1/"
   xmlns:cc="http://creativecommons.org/ns#"
   xmlns:rdf="http://www.w3.org/1999/02/22-rdf-syntax-ns#"
   xmlns:svg="http://www.w3.org/2000/svg"
   xmlns="http://www.w3.org/2000/svg"
   xmlns:sodipodi="http://sodipodi.sourceforge.net/DTD/sodipodi-0.dtd"
   xmlns:inkscape="http://www.inkscape.org/namespaces/inkscape"
   width="246.47513"
   height="64.618797"
   viewBox="0 0 65.21321 17.097056"
   version="1.1"
   id="svg12389"
   inkscape:version="0.92.0 r15299"
   sodipodi:docname="department for communities.svg">
  <defs
     id="defs12383">
    <clipPath
       id="clipPath10041"
       clipPathUnits="userSpaceOnUse">
      <path
         inkscape:connector-curvature="0"
         id="path10039"
         d="M 0,0 H 839.055 V 595.276 H 0 Z" />
    </clipPath>
    <clipPath
       id="clipPath9949"
       clipPathUnits="userSpaceOnUse">
      <path
         inkscape:connector-curvature="0"
         id="path9947"
         d="M 0,0 H 839.055 V 595.276 H 0 Z" />
    </clipPath>
    <clipPath
       id="clipPath9933"
       clipPathUnits="userSpaceOnUse">
      <path
         inkscape:connector-curvature="0"
         id="path9931"
         d="M 0,0 H 839.055 V 595.276 H 0 Z" />
    </clipPath>
    <clipPath
       id="clipPath9911"
       clipPathUnits="userSpaceOnUse">
      <path
         inkscape:connector-curvature="0"
         id="path9909"
         d="M 0,0 H 839.055 V 595.276 H 0 Z" />
    </clipPath>
    <clipPath
       id="clipPath9893"
       clipPathUnits="userSpaceOnUse">
      <path
         inkscape:connector-curvature="0"
         id="path9891"
         d="M 0,0 H 839.055 V 595.276 H 0 Z" />
    </clipPath>
    <clipPath
       id="clipPath9875"
       clipPathUnits="userSpaceOnUse">
      <path
         inkscape:connector-curvature="0"
         id="path9873"
         d="M 0,0 H 839.055 V 595.276 H 0 Z" />
    </clipPath>
    <clipPath
       id="clipPath9859"
       clipPathUnits="userSpaceOnUse">
      <path
         inkscape:connector-curvature="0"
         id="path9857"
         d="M 0,0 H 839.055 V 595.276 H 0 Z" />
    </clipPath>
    <clipPath
       id="clipPath9823"
       clipPathUnits="userSpaceOnUse">
      <path
         inkscape:connector-curvature="0"
         id="path9821"
         d="M 0,0 H 839.055 V 595.276 H 0 Z" />
    </clipPath>
  </defs>
  <sodipodi:namedview
     id="base"
     pagecolor="#ffffff"
     bordercolor="#666666"
     borderopacity="1.0"
     inkscape:pageopacity="0.0"
     inkscape:pageshadow="2"
     inkscape:zoom="3.6690848"
     inkscape:cx="122.23757"
     inkscape:cy="31.309398"
     inkscape:document-units="mm"
     inkscape:current-layer="layer1"
     showgrid="false"
     fit-margin-top="0"
     fit-margin-left="0"
     fit-margin-right="0"
     fit-margin-bottom="0"
     units="px"
     inkscape:window-width="1280"
     inkscape:window-height="744"
     inkscape:window-x="-4"
     inkscape:window-y="-4"
     inkscape:window-maximized="1" />
  <metadata
     id="metadata12386">
    <rdf:RDF>
      <cc:Work
         rdf:about="">
        <dc:format>image/svg+xml</dc:format>
        <dc:type
           rdf:resource="http://purl.org/dc/dcmitype/StillImage" />
        <dc:title></dc:title>
      </cc:Work>
    </rdf:RDF>
  </metadata>
  <g
     inkscape:label="Layer 1"
     inkscape:groupmode="layer"
     id="layer1"
     transform="translate(-57.616694,-190.66904)">
    <g
       id="g13017"
       transform="translate(0.2645825,-0.26457875)">
      <g
         style="fill:#061f5c;fill-opacity:1"
         id="g12972">
        <path
           inkscape:connector-curvature="0"
           id="path9749"
           style="fill:#061f5c;fill-opacity:1;fill-rule:nonzero;stroke:none;stroke-width:0.35277778"
           d="m 64.717079,199.48207 -1.775178,1.0354 3.53e-4,2.07081 1.774825,1.03575 1.775178,-1.03575 v -2.07081 z" />
        <path
           inkscape:connector-curvature="0"
           id="path9753"
           style="fill:#061f5c;fill-opacity:1;fill-rule:nonzero;stroke:none;stroke-width:0.35277778"
           d="m 62.942201,206.73033 1.774825,1.03576 1.77553,-1.03576 v -2.07081 l -1.77553,-1.03575 -1.774825,1.03575 z" />
        <path
           inkscape:connector-curvature="0"
           id="path9757"
           style="fill:#061f5c;fill-opacity:1;fill-rule:nonzero;stroke:none;stroke-width:0.35277778"
           d="m 62.941989,194.30465 -1.775178,-1.0354 -1.774825,1.0354 v 2.07081 l 1.774825,1.03575 1.775178,-1.03575 z" />
        <path
           inkscape:connector-curvature="0"
           id="path9761"
           style="fill:#061f5c;fill-opacity:1;fill-rule:nonzero;stroke:none;stroke-width:0.35277778"
           d="m 61.1669,201.55291 1.775178,-1.0354 v -2.07116 l -1.775178,-1.0354 -1.775178,1.0354 3.53e-4,2.07116 z" />
        <path
           inkscape:connector-curvature="0"
           id="path9765"
           style="fill:#061f5c;fill-opacity:1;fill-rule:nonzero;stroke:none;stroke-width:0.35277778"
           d="m 61.1669,201.55291 -1.775178,1.0354 3.53e-4,2.07116 1.774825,1.0354 1.775178,-1.0354 v -2.07116 z" />
        <path
           inkscape:connector-curvature="0"
           id="path9769"
           style="fill:#061f5c;fill-opacity:1;fill-rule:nonzero;stroke:none;stroke-width:0.35277778"
           d="m 59.391889,196.37552 -1.775178,-1.0354 v 4.14196 l 1.775178,-1.03575 z" />
        <path
           inkscape:connector-curvature="0"
           id="path9773"
           style="fill:#061f5c;fill-opacity:1;fill-rule:nonzero;stroke:none;stroke-width:0.35277778"
           d="m 57.616694,199.48207 v 4.14196 l 1.775178,-1.03575 v -2.07081 z" />
      </g>
      <g
         style="fill:#775ba6;fill-opacity:1"
         id="g12963">
        <path
           inkscape:connector-curvature="0"
           id="path9777"
           style="fill:#775ba6;fill-opacity:1;fill-rule:nonzero;stroke:none;stroke-width:0.35277778"
           d="m 66.492301,192.2336 -1.775178,-1.0354 -1.775177,1.0354 v 2.07116 l 1.775177,1.0354 1.775178,-1.0354 z" />
        <path
           inkscape:connector-curvature="0"
           id="path9781"
           style="fill:#775ba6;fill-opacity:1;fill-rule:nonzero;stroke:none;stroke-width:0.35277778"
           d="m 64.717079,199.48207 1.775178,-1.03576 v -2.0708 l -1.775178,-1.0354 -1.775178,1.0354 3.53e-4,2.0708 z" />
        <path
           inkscape:connector-curvature="0"
           id="path9785"
           style="fill:#775ba6;fill-opacity:1;fill-rule:nonzero;stroke:none;stroke-width:0.35277778"
           d="m 68.267496,197.41107 1.775178,-1.0354 v -2.07116 l -1.775178,-1.0354 -1.775178,1.0354 v 2.07116 z" />
        <path
           inkscape:connector-curvature="0"
           id="path9789"
           style="fill:#775ba6;fill-opacity:1;fill-rule:nonzero;stroke:none;stroke-width:0.35277778"
           d="m 68.267496,197.41107 -1.775178,1.0354 v 2.07081 l 1.775178,1.03575 1.775178,-1.03575 v -2.07081 z" />
        <path
           inkscape:connector-curvature="0"
           id="path9793"
           style="fill:#775ba6;fill-opacity:1;fill-rule:nonzero;stroke:none;stroke-width:0.35277778"
           d="m 66.492486,204.65949 1.775178,1.0354 1.774825,-1.0354 v -2.07116 l -1.774825,-1.0354 -1.775178,1.0354 z" />
        <path
           inkscape:connector-curvature="0"
           id="path9797"
           style="fill:#775ba6;fill-opacity:1;fill-rule:nonzero;stroke:none;stroke-width:0.35277778"
           d="m 70.042586,198.44649 1.775178,1.03576 v -4.14232 l -1.775178,1.03575 z" />
        <path
           inkscape:connector-curvature="0"
           id="path9801"
           style="fill:#775ba6;fill-opacity:1;fill-rule:nonzero;stroke:none;stroke-width:0.35277778"
           d="m 70.042586,202.58839 1.775178,1.0354 v -4.14161 l -1.775178,1.0354 z" />
      </g>
      <g
         style="fill:#061f5c;fill-opacity:1"
         id="g12954">
        <path
           inkscape:connector-curvature="0"
           id="path9953"
           style="fill:#061f5c;fill-opacity:1;fill-rule:nonzero;stroke:none;stroke-width:0.35277778"
           d="m 76.307762,191.69271 c 0.242711,0 0.423333,0.0857 0.536928,0.254 0.114653,0.17004 0.172861,0.36477 0.172861,0.5782 0,0.26353 -0.06103,0.47872 -0.181328,0.63888 -0.119239,0.15946 -0.297392,0.24024 -0.528461,0.24024 h -0.434269 v -1.71132 z m 0.757414,1.645 c 0.170039,-0.21449 0.256117,-0.48154 0.256117,-0.79339 0,-0.30763 -0.08819,-0.57186 -0.262467,-0.78458 -0.174625,-0.21379 -0.421922,-0.32209 -0.734836,-0.32209 h -0.750711 v 2.22497 h 0.841022 c 0.261761,0 0.480836,-0.10936 0.650875,-0.32491" />
        <path
           inkscape:connector-curvature="0"
           id="path9957"
           style="fill:#061f5c;fill-opacity:1;fill-rule:nonzero;stroke:none;stroke-width:0.35277778"
           d="m 77.828869,192.6577 c 0.01235,-0.14252 0.06033,-0.25823 0.142875,-0.34325 0.08502,-0.0875 0.189442,-0.13159 0.31115,-0.13159 0.09031,0 0.168628,0.0243 0.232833,0.0723 0.06421,0.0483 0.110773,0.1076 0.137584,0.17604 0.02611,0.066 0.04092,0.14217 0.0441,0.22648 z m 0.439561,1.04987 c 0.170745,0 0.321028,-0.0466 0.447322,-0.139 0.126295,-0.0924 0.212373,-0.21096 0.255764,-0.35172 l 0.0042,-0.013 -0.258939,-0.0529 -0.0039,0.01 c -0.08361,0.21061 -0.223308,0.31291 -0.426861,0.31291 -0.111478,0 -0.218722,-0.0423 -0.319264,-0.12594 -0.09807,-0.0818 -0.148519,-0.24201 -0.150283,-0.47625 h 1.183216 v -0.0127 c -0.0035,-0.29492 -0.07161,-0.51999 -0.202494,-0.66887 -0.130881,-0.14922 -0.306917,-0.22507 -0.522464,-0.22507 -0.218369,0 -0.402872,0.0822 -0.547511,0.24377 -0.144286,0.16122 -0.217664,0.37536 -0.217664,0.63676 0,0.25577 0.07056,0.46567 0.20955,0.62372 0.139347,0.15839 0.32385,0.23883 0.549275,0.23883" />
        <path
           inkscape:connector-curvature="0"
           id="path9961"
           style="fill:#061f5c;fill-opacity:1;fill-rule:nonzero;stroke:none;stroke-width:0.35277778"
           d="m 80.001451,192.21013 c 0.123119,0 0.223308,0.0543 0.297744,0.16157 0.0755,0.10866 0.113948,0.266 0.113948,0.46743 0,0.23354 -0.04198,0.39935 -0.125236,0.49319 -0.08255,0.0935 -0.178506,0.14111 -0.285045,0.14111 -0.09207,0 -0.182033,-0.0395 -0.267053,-0.11748 -0.08572,-0.078 -0.136525,-0.1778 -0.1524,-0.29563 v -0.45825 c 0.0254,-0.10831 0.07761,-0.20179 0.155223,-0.27799 0.07726,-0.0755 0.165452,-0.11395 0.262819,-0.11395 m -0.418042,1.23578 c 0.117123,0.17357 0.274814,0.26176 0.469548,0.26176 0.193322,0 0.353836,-0.0804 0.477308,-0.23883 0.122414,-0.15734 0.184855,-0.37289 0.184855,-0.64029 0,-0.24765 -0.06068,-0.45544 -0.179563,-0.61771 -0.119945,-0.16334 -0.279753,-0.24624 -0.475192,-0.24624 -0.216253,0 -0.384881,0.1083 -0.501297,0.32173 v -0.27658 h -0.253295 v 2.20239 h 0.277636 z" />
        <path
           inkscape:connector-curvature="0"
           id="path9965"
           style="fill:#061f5c;fill-opacity:1;fill-rule:nonzero;stroke:none;stroke-width:0.35277778"
           d="m 81.507671,193.48789 c -0.109361,0 -0.193322,-0.0272 -0.250472,-0.0808 -0.0568,-0.0533 -0.08537,-0.11853 -0.08537,-0.19438 0,-0.12276 0.05221,-0.21343 0.159808,-0.27728 0.108303,-0.0642 0.263172,-0.0967 0.459669,-0.0967 0.05186,0 0.127353,0.003 0.223661,0.009 0.0028,0.0356 0.0042,0.0674 0.0042,0.0949 0,0.1457 -0.04868,0.27481 -0.144639,0.38276 -0.09525,0.1076 -0.218722,0.16228 -0.366889,0.16228 m -0.416983,-0.70273 c -0.142523,0.1083 -0.214489,0.248 -0.214489,0.41627 0,0.13829 0.05045,0.25859 0.150283,0.35737 0.09984,0.0984 0.244122,0.14887 0.429683,0.14887 0.25647,0 0.445206,-0.10301 0.560917,-0.30692 0.0088,0.12242 0.01764,0.20461 0.02646,0.25153 l 0.0018,0.0102 h 0.275873 l -0.0035,-0.0152 c -0.02223,-0.0942 -0.03351,-0.19968 -0.03351,-0.31327 v -0.69145 c 0,-0.24694 -0.04868,-0.42403 -0.144639,-0.52493 -0.09596,-0.1016 -0.259997,-0.1531 -0.486833,-0.1531 -0.427214,0 -0.6731,0.15487 -0.731309,0.45967 l -0.0021,0.0123 0.25788,0.0445 0.0025,-0.0116 c 0.04092,-0.1905 0.183444,-0.28363 0.436033,-0.28363 0.102658,0 0.186267,0.0169 0.248708,0.0501 0.06138,0.0332 0.101953,0.0769 0.12065,0.13124 0.0187,0.054 0.02858,0.14216 0.02893,0.26281 -0.08996,-0.004 -0.158397,-0.006 -0.203553,-0.006 -0.336197,0 -0.578555,0.0543 -0.719666,0.16122" />
        <path
           inkscape:connector-curvature="0"
           id="path9969"
           style="fill:#061f5c;fill-opacity:1;fill-rule:nonzero;stroke:none;stroke-width:0.35277778"
           d="m 82.993536,192.78981 c 0.0063,-0.16616 0.05539,-0.30198 0.145344,-0.40322 0.08961,-0.10125 0.203553,-0.1524 0.33902,-0.1524 h 0.06385 v -0.26529 l -0.01129,-0.001 c -0.04198,-0.005 -0.07514,-0.006 -0.101247,-0.006 -0.08467,0 -0.168628,0.0275 -0.249414,0.0818 -0.07232,0.0487 -0.145345,0.15029 -0.216959,0.30198 v -0.33549 H 82.7159 v 1.65276 h 0.277636 z" />
        <path
           inkscape:connector-curvature="0"
           id="path9973"
           style="fill:#061f5c;fill-opacity:1;fill-rule:nonzero;stroke:none;stroke-width:0.35277778"
           d="m 83.897705,193.20154 c 0,0.33584 0.162983,0.50588 0.484717,0.50588 0.06597,0 0.144639,-0.006 0.233539,-0.0176 l 0.01094,-0.001 v -0.22542 l -0.01446,0.002 c -0.07161,0.0116 -0.137231,0.0176 -0.194734,0.0176 -0.167216,0 -0.248708,-0.0783 -0.248708,-0.23954 v -1.01071 h 0.364067 v -0.22295 h -0.364067 v -0.43321 l -0.259644,0.0247 -0.01129,0.40852 H 83.60914 v 0.22295 h 0.288572 z" />
        <path
           inkscape:connector-curvature="0"
           id="path9977"
           style="fill:#061f5c;fill-opacity:1;fill-rule:nonzero;stroke:none;stroke-width:0.35277778"
           d="m 85.096267,192.67657 c 0,-0.13829 0.03916,-0.25365 0.116417,-0.34325 0.07655,-0.0893 0.167922,-0.13441 0.270933,-0.13441 0.07197,0 0.141464,0.0289 0.207081,0.0857 0.06526,0.0561 0.09807,0.15523 0.09807,0.29352 v 1.08443 h 0.269875 v -0.92957 c 0,-0.17744 0.0441,-0.31079 0.13088,-0.39652 0.08678,-0.0861 0.178153,-0.12947 0.270934,-0.12947 0.06703,0 0.127705,0.0212 0.180975,0.0628 0.05327,0.0413 0.08749,0.0875 0.101247,0.13688 0.01411,0.0512 0.02152,0.12876 0.02152,0.23106 v 1.02482 h 0.270934 v -1.02482 c 0,-0.14993 -0.0127,-0.26811 -0.0381,-0.35101 -0.02575,-0.084 -0.0822,-0.15981 -0.167217,-0.22437 -0.08502,-0.0649 -0.185561,-0.0977 -0.29845,-0.0977 -0.225425,0 -0.397228,0.12242 -0.510822,0.36478 -0.02752,-0.0949 -0.07867,-0.1778 -0.152753,-0.24695 -0.08396,-0.0783 -0.186972,-0.11783 -0.306917,-0.11783 -0.2032,0 -0.367594,0.10795 -0.488597,0.32103 v -0.27587 H 84.82992 v 1.65276 h 0.266347 z" />
        <path
           inkscape:connector-curvature="0"
           id="path9981"
           style="fill:#061f5c;fill-opacity:1;fill-rule:nonzero;stroke:none;stroke-width:0.35277778"
           d="m 87.659198,192.6577 c 0.01235,-0.14252 0.06032,-0.25823 0.142875,-0.34325 0.08502,-0.0875 0.189442,-0.13159 0.31115,-0.13159 0.09031,0 0.168628,0.0243 0.232833,0.0723 0.06421,0.0483 0.110773,0.1076 0.137584,0.17604 0.02611,0.066 0.04057,0.14217 0.0441,0.22648 z m 0.439561,1.04987 c 0.170745,0 0.321028,-0.0466 0.447322,-0.139 0.126295,-0.0924 0.212373,-0.21096 0.255764,-0.35172 l 0.0042,-0.013 -0.258939,-0.0529 -0.0035,0.01 c -0.08396,0.21061 -0.223661,0.31291 -0.427214,0.31291 -0.111478,0 -0.218722,-0.0423 -0.319264,-0.12594 -0.09807,-0.0818 -0.148519,-0.24201 -0.150283,-0.47625 h 1.183216 v -0.0127 c -0.0035,-0.29492 -0.07161,-0.51999 -0.202141,-0.66887 -0.131234,-0.14922 -0.30727,-0.22507 -0.522817,-0.22507 -0.218369,0 -0.402872,0.0822 -0.547864,0.24377 -0.143933,0.16122 -0.217311,0.37536 -0.217311,0.63676 0,0.25577 0.07056,0.46567 0.20955,0.62372 0.139347,0.15839 0.32385,0.23883 0.549275,0.23883" />
        <path
           inkscape:connector-curvature="0"
           id="path9985"
           style="fill:#061f5c;fill-opacity:1;fill-rule:nonzero;stroke:none;stroke-width:0.35277778"
           d="m 89.413879,192.75707 c 0,-0.16475 0.04304,-0.29951 0.128411,-0.3997 0.08467,-0.0998 0.190853,-0.15028 0.315383,-0.15028 0.08996,0 0.167217,0.0296 0.230012,0.0885 0.06279,0.0586 0.09454,0.16227 0.09454,0.30832 v 1.05869 h 0.261408 v -0.95391 c 0,-0.20567 -0.01623,-0.35066 -0.04833,-0.43004 -0.03246,-0.0804 -0.09278,-0.15345 -0.179917,-0.21766 -0.08714,-0.0639 -0.194028,-0.0967 -0.3175,-0.0967 -0.202142,0 -0.370769,0.10548 -0.502003,0.31291 v -0.2674 h -0.259644 v 1.65276 h 0.277636 z" />
        <path
           inkscape:connector-curvature="0"
           id="path9989"
           style="fill:#061f5c;fill-opacity:1;fill-rule:nonzero;stroke:none;stroke-width:0.35277778"
           d="m 90.909798,193.20154 c 0,0.33584 0.162983,0.50588 0.484364,0.50588 0.06597,0 0.144639,-0.006 0.233892,-0.0176 l 0.01058,-0.001 v -0.22542 l -0.01411,0.002 c -0.07197,0.0116 -0.137584,0.0176 -0.194734,0.0176 -0.167569,0 -0.248708,-0.0783 -0.248708,-0.23954 v -1.01071 h 0.364067 v -0.22295 h -0.364067 v -0.43321 l -0.259644,0.0247 -0.01129,0.40852 h -0.288925 v 0.22295 h 0.288572 z" />
        <path
           inkscape:connector-curvature="0"
           id="path9993"
           style="fill:#061f5c;fill-opacity:1;fill-rule:nonzero;stroke:none;stroke-width:0.35277778"
           d="m 92.652873,193.66251 h 0.277636 v -1.42981 h 0.386997 v -0.22295 h -0.386997 v -0.0536 c 0,-0.13017 0.0254,-0.21978 0.07585,-0.26564 0.0508,-0.0466 0.130528,-0.0702 0.23742,-0.0702 0.04833,0 0.09984,0.007 0.153458,0.0205 l 0.01552,0.004 v -0.22789 l -0.01023,-0.002 c -0.08784,-0.0148 -0.166511,-0.0226 -0.234597,-0.0226 -0.140759,0 -0.261409,0.0388 -0.359481,0.11535 -0.09772,0.0762 -0.149578,0.24518 -0.155222,0.50201 H 92.37559 v 0.22295 h 0.277283 z" />
        <path
           inkscape:connector-curvature="0"
           id="path9997"
           style="fill:#061f5c;fill-opacity:1;fill-rule:nonzero;stroke:none;stroke-width:0.35277778"
           d="m 94.096969,193.47335 c -0.123472,0 -0.228953,-0.0497 -0.312914,-0.14817 -0.08467,-0.0988 -0.127705,-0.26599 -0.127705,-0.49706 0,-0.21872 0.04339,-0.37994 0.127705,-0.47943 0.08431,-0.0995 0.188383,-0.14993 0.309739,-0.14993 0.118533,0 0.222956,0.0501 0.311503,0.14817 0.0889,0.0991 0.134055,0.26141 0.134055,0.4826 0,0.22084 -0.04304,0.38523 -0.128058,0.48895 -0.08396,0.10266 -0.189794,0.15487 -0.314325,0.15487 m -0.55245,-0.0191 c 0.127353,0.16792 0.306564,0.25329 0.533047,0.25329 0.224367,0 0.409575,-0.0825 0.551039,-0.24553 0.141111,-0.16228 0.212725,-0.3743 0.212725,-0.63006 0,-0.24589 -0.06632,-0.45402 -0.197203,-0.61842 -0.131233,-0.1651 -0.313266,-0.24906 -0.540808,-0.24906 -0.212019,0 -0.391936,0.0797 -0.534458,0.23636 -0.142523,0.15663 -0.214136,0.3683 -0.214136,0.62971 0,0.24694 0.06385,0.45649 0.189794,0.62371" />
        <path
           inkscape:connector-curvature="0"
           id="path10001"
           style="fill:#061f5c;fill-opacity:1;fill-rule:nonzero;stroke:none;stroke-width:0.35277778"
           d="m 95.425177,192.78981 c 0.0063,-0.16616 0.05539,-0.30198 0.145344,-0.40322 0.08961,-0.10125 0.203553,-0.1524 0.33902,-0.1524 h 0.06385 v -0.26529 l -0.01129,-0.001 c -0.04198,-0.005 -0.07514,-0.006 -0.101247,-0.006 -0.08467,0 -0.168628,0.0275 -0.249414,0.0818 -0.07232,0.0487 -0.145345,0.15029 -0.216959,0.30198 v -0.33549 h -0.246944 v 1.65276 h 0.277636 z" />
        <path
           inkscape:connector-curvature="0"
           id="path10005"
           style="fill:#061f5c;fill-opacity:1;fill-rule:nonzero;stroke:none;stroke-width:0.35277778"
           d="m 77.778633,202.12064 c 0.551039,0 1.027994,-0.16616 1.586794,-0.55386 l 0.3175,0.45685 h 0.211667 v -1.9177 h -0.220133 l -0.01023,0.0296 c -0.391583,1.12677 -0.998714,1.67499 -1.856669,1.67499 -0.500945,0 -0.951089,-0.20708 -1.204031,-0.55386 -0.242711,-0.32667 -0.320675,-0.87101 -0.320675,-2.23979 0,-1.38324 0.08749,-2.19851 0.276225,-2.5661 0.233186,-0.4759 0.725664,-0.76024 1.316567,-0.76024 0.921455,0 1.539522,0.53446 1.787525,1.54517 l 0.0081,0.0335 h 0.223308 v -1.79176 H 79.68328 l -0.316089,0.43674 c -0.46108,-0.34431 -0.992364,-0.53375 -1.501422,-0.53375 -1.567039,0 -2.890661,1.52788 -2.890661,3.33622 0,1.87678 1.257653,3.40395 2.803525,3.40395" />
        <path
           inkscape:connector-curvature="0"
           id="path10009"
           style="fill:#061f5c;fill-opacity:1;fill-rule:nonzero;stroke:none;stroke-width:0.35277778"
           d="m 83.113268,201.39985 c -0.127,0.27234 -0.390525,0.41063 -0.783519,0.41063 -0.354895,0 -0.573264,-0.0903 -0.729545,-0.30162 -0.14605,-0.20073 -0.155928,-0.29457 -0.155928,-1.43651 0,-1.00683 0.0092,-1.1423 0.09243,-1.31763 0.128764,-0.27622 0.388408,-0.41063 0.793045,-0.41063 0.343605,0 0.565855,0.0928 0.720019,0.30162 0.14605,0.20073 0.156281,0.29387 0.156281,1.42664 0,1.01564 -0.0095,1.15182 -0.09278,1.3275 m 1.216378,-1.3275 c 0,-1.12395 -0.897114,-2.03871 -1.999897,-2.03871 -1.108075,0 -2.009423,0.91476 -2.009423,2.03871 0,1.12959 0.901348,2.04822 2.009423,2.04822 1.102783,0 1.999897,-0.91863 1.999897,-2.04822" />
        <path
           inkscape:connector-curvature="0"
           id="path10013"
           style="fill:#061f5c;fill-opacity:1;fill-rule:nonzero;stroke:none;stroke-width:0.35277778"
           d="m 86.818317,201.74254 h -0.581025 v -1.00189 c 0,-1.13418 0.04022,-1.60126 0.160514,-1.85067 0.118886,-0.25612 0.438855,-0.44909 0.744714,-0.44909 0.381353,0 0.508,0.13935 0.508,0.96344 v 2.33821 h -0.581025 v 0.28116 h 2.121253 v -0.28116 h -0.581025 v -1.82527 c 0,-0.3556 0.0099,-0.44309 0.01905,-0.52811 0.0194,-0.20249 0.06809,-0.37112 0.150283,-0.51647 0.149225,-0.27975 0.445558,-0.46108 0.755297,-0.46108 0.146403,0 0.2794,0.0462 0.356306,0.12312 0.123472,0.12312 0.142169,0.23707 0.142169,0.8696 v 2.33821 h -0.581025 v 0.28116 h 2.188986 v -0.28116 h -0.649111 v -2.33821 c 0,-0.53799 -0.05292,-0.79622 -0.202847,-0.98566 -0.182739,-0.23389 -0.553861,-0.38488 -0.944739,-0.38488 -0.578203,0 -1.012472,0.19438 -1.324328,0.59337 -0.173214,-0.40428 -0.517525,-0.59337 -1.07703,-0.59337 -0.489303,0 -0.875242,0.16298 -1.205442,0.51082 v -0.41381 h -1.607961 v 0.28081 h 0.648758 v 3.33093 h -0.648758 v 0.28116 h 2.188986 z" />
        <path
           inkscape:connector-curvature="0"
           id="path10017"
           style="fill:#061f5c;fill-opacity:1;fill-rule:nonzero;stroke:none;stroke-width:0.35277778"
           d="m 95.630776,199.91737 c 0,-0.35595 0.0099,-0.44309 0.01905,-0.52846 0.0194,-0.20214 0.06844,-0.37077 0.150283,-0.51611 0.149225,-0.28011 0.445559,-0.46109 0.755298,-0.46109 0.146402,0 0.2794,0.0462 0.356305,0.12312 0.123472,0.12312 0.14217,0.23707 0.14217,0.86925 v 2.33856 h -0.581025 v 0.28117 h 2.188986 v -0.28117 h -0.649111 v -2.33856 c 0,-0.53799 -0.05292,-0.79587 -0.202848,-0.98566 -0.182739,-0.23354 -0.553861,-0.38453 -0.944739,-0.38453 -0.578202,0 -1.012472,0.19438 -1.324327,0.59337 -0.173214,-0.40428 -0.517525,-0.59337 -1.077031,-0.59337 -0.48895,0 -0.874889,0.16298 -1.205442,0.51047 v -0.41381 h -1.482724 v 0.28116 h 0.648758 v 3.33093 h -0.648758 v 0.28117 h 2.063749 v -0.28117 h -0.581025 v -1.00224 c 0,-1.13418 0.04057,-1.6009 0.160514,-1.85032 0.118886,-0.25612 0.439209,-0.44908 0.744714,-0.44908 0.381353,0 0.508353,0.13899 0.508353,0.96308 v 2.33856 h -0.581025 v 0.28117 h 2.1209 v -0.28117 h -0.581025 z" />
        <path
           inkscape:connector-curvature="0"
           id="path10021"
           style="fill:#061f5c;fill-opacity:1;fill-rule:nonzero;stroke:none;stroke-width:0.35277778"
           d="m 102.60428,198.13062 h -1.60761 v 0.28116 h 0.64876 v 1.31198 c 0,1.03153 -0.0406,1.33703 -0.21661,1.63337 -0.16792,0.27975 -0.48365,0.45331 -0.82444,0.45331 -0.18873,0 -0.35419,-0.054 -0.43391,-0.14216 -0.12206,-0.12207 -0.14217,-0.29563 -0.14217,-1.23755 v -2.30011 h -1.607612 v 0.28116 h 0.648759 v 2.01895 c 0,0.8255 0.05856,1.07386 0.313619,1.32927 0.243064,0.23248 0.618064,0.36054 1.056924,0.36054 0.51999,0 0.93345,-0.18415 1.20544,-0.53411 v 0.43745 h 1.59808 v -0.28152 h -0.63923 z" />
        <path
           inkscape:connector-curvature="0"
           id="path10025"
           style="fill:#061f5c;fill-opacity:1;fill-rule:nonzero;stroke:none;stroke-width:0.35277778"
           d="m 105.62568,201.74254 h -0.58102 v -1.10843 c 0,-1.15605 0.0547,-1.58926 0.23424,-1.85349 0.14358,-0.20673 0.43004,-0.36901 0.65158,-0.36901 0.18909,0 0.34043,0.0695 0.44979,0.20638 0.14817,0.18485 0.18415,0.51399 0.18415,1.6771 v 1.44745 h -0.59055 v 0.28116 h 2.18899 v -0.28116 h -0.63924 v -2.10573 c 0,-0.73484 -0.0526,-0.96132 -0.28257,-1.21109 -0.21061,-0.23071 -0.62195,-0.39193 -1.00048,-0.39193 -0.51576,0 -0.87983,0.15698 -1.19591,0.5214 v -0.42439 h -1.60797 v 0.28081 h 0.64912 v 3.33093 h -0.64912 v 0.28116 h 2.18899 z" />
        <path
           inkscape:connector-curvature="0"
           id="path10029"
           style="fill:#061f5c;fill-opacity:1;fill-rule:nonzero;stroke:none;stroke-width:0.35277778"
           d="m 109.39694,196.79472 c 0.31221,0 0.58596,-0.27376 0.58596,-0.58596 0,-0.33408 -0.26564,-0.59585 -0.60536,-0.59585 -0.33373,0 -0.57644,0.25048 -0.57644,0.59585 0,0.32843 0.26176,0.58596 0.59584,0.58596" />
        <path
           inkscape:connector-curvature="0"
           id="path10033"
           style="fill:#061f5c;fill-opacity:1;fill-rule:nonzero;stroke:none;stroke-width:0.35277778"
           d="m 110.535,201.74254 h -0.63923 v -3.61174 h -1.60761 v 0.28081 h 0.64876 v 3.33093 h -0.64876 v 0.28116 h 2.24684 z" />
        <path
           inkscape:connector-curvature="0"
           id="path10045"
           style="fill:#061f5c;fill-opacity:1;fill-rule:nonzero;stroke:none;stroke-width:0.35277778"
           d="m 113.312,201.21012 h -0.28116 l -0.007,0.0353 c -0.0628,0.33267 -0.2092,0.48754 -0.46037,0.48754 -0.2854,0 -0.42122,-0.0921 -0.42122,-0.61489 v -2.70616 h 0.96837 v -0.28117 h -0.96837 v -1.48166 h -0.2286 l -0.0109,0.0279 c -0.28645,0.74436 -0.65899,1.18392 -1.28693,1.51694 l -0.0233,0.0123 v 0.20567 h 0.59055 v 2.40594 c 0,0.59478 0.0152,0.71826 0.2032,0.93768 0.18944,0.23883 0.48577,0.36513 0.8576,0.36513 0.6029,0 0.96979,-0.29739 1.0601,-0.86007 z" />
        <path
           inkscape:connector-curvature="0"
           id="path10049"
           style="fill:#061f5c;fill-opacity:1;fill-rule:nonzero;stroke:none;stroke-width:0.35277778"
           d="m 114.34493,196.79472 c 0.31221,0 0.58596,-0.27376 0.58596,-0.58596 0,-0.33408 -0.26599,-0.59585 -0.60536,-0.59585 -0.33408,0 -0.57644,0.25048 -0.57644,0.59585 0,0.32843 0.26176,0.58596 0.59584,0.58596" />
        <path
           inkscape:connector-curvature="0"
           id="path10053"
           style="fill:#061f5c;fill-opacity:1;fill-rule:nonzero;stroke:none;stroke-width:0.35277778"
           d="m 114.84379,198.13063 h -1.60796 v 0.28116 h 0.64911 v 3.33058 h -0.64911 v 0.28152 h 2.24684 v -0.28152 h -0.63888 z" />
        <path
           inkscape:connector-curvature="0"
           id="path10065"
           style="fill:#061f5c;fill-opacity:1;fill-rule:nonzero;stroke:none;stroke-width:0.35277778"
           d="m 117.50159,198.34391 c 0.29845,0 0.50729,0.12418 0.58843,0.3496 0.0628,0.16122 0.0741,0.2346 0.0748,0.8315 h -1.41358 v -0.17886 c 0,-0.7306 0.20355,-1.00224 0.75036,-1.00224 m 1.76071,1.46226 -0.003,-0.0466 c -0.0695,-1.04846 -0.75177,-1.72579 -1.73849,-1.72579 -0.99307,0 -1.86443,0.95708 -1.86443,2.04823 0,1.06715 0.89782,2.0387 1.88384,2.0387 0.82832,0 1.49154,-0.56692 1.65029,-1.41111 l 0.01,-0.0519 h -0.31927 l -0.008,0.0332 c -0.1778,0.70097 -0.64699,1.11936 -1.25518,1.11936 -0.32632,0 -0.58773,-0.14358 -0.73696,-0.40393 -0.11147,-0.19544 -0.12982,-0.38382 -0.12982,-1.34373 v -0.25647 z" />
        <path
           inkscape:connector-curvature="0"
           id="path10069"
           style="fill:#061f5c;fill-opacity:1;fill-rule:nonzero;stroke:none;stroke-width:0.35277778"
           d="m 120.95659,199.47731 c -0.77505,-0.14111 -0.91299,-0.25576 -0.91299,-0.50906 0,-0.34995 0.35066,-0.62441 0.79869,-0.62441 0.53587,0 0.96837,0.37923 1.05092,0.9218 l 0.006,0.0371 h 0.22789 l -0.0314,-1.23014 h -0.21555 l -0.14288,0.29563 c -0.31855,-0.24377 -0.58667,-0.34396 -0.91404,-0.34396 -0.68192,0 -1.19592,0.53058 -1.19592,1.23472 0,0.77153 0.35384,1.1049 1.35396,1.27318 0.73801,0.1143 0.87313,0.28363 0.87313,0.57643 0,0.40005 -0.36019,0.70203 -0.8375,0.70203 -0.61771,0 -0.96767,-0.37535 -1.20685,-1.29399 l -0.008,-0.0328 h -0.21413 l 0.031,1.53988 h 0.1711 l 0.21837,-0.29104 c 0.35489,0.28222 0.63218,0.38805 1.00894,0.38805 0.74366,0 1.28341,-0.57644 1.28341,-1.37054 0,-0.73695 -0.38947,-1.1056 -1.34338,-1.27282" />
      </g>
    </g>
  </g>
</svg>
