<svg data-name="LOGO - LARGE - WHITE" xmlns="http://www.w3.org/2000/svg" width="279.907" height="126.091"><defs><clipPath id="a"><path data-name="Rectangle 374" d="M0 0h279.906v126.091H0z"/></clipPath></defs><path data-name="Path 757" d="M215.203 110.793v15.128h8.053l.69-2.753h-5.543v-12.375z"/><path data-name="Path 758" d="M205.377 113.773l1.433 6.3h-2.821zm-2.24-2.979l-3.715 15.128h3.279l.7-3.18h4.014l.723 3.18h3.3l-3.78-15.128z"/><path data-name="Path 759" d="M35.58 110.793v2.753h3.416v12.376h3.2v-12.376h3.232l.689-2.753z"/><path data-name="Path 760" d="M256.89 110.793v15.128h8.974v-2.753h-5.77v-3.52h4.548l.689-2.753h-5.237v-3.349h5.77v-2.753z"/><path data-name="Path 761" d="M167.328 110.793v15.128h8.053l.69-2.753h-5.536v-12.375z"/><path data-name="Path 762" d="M7.584 110.793v6.1h-4.38v-6.1h-3.2v15.128h3.2v-6.188h4.38v6.188h3.2v-15.128z"/><path data-name="Rectangle 368" d="M15.528 110.793h3.204v15.128h-3.204z"/><path data-name="Rectangle 369" d="M79.612 110.793h3.205v15.128h-3.205z"/><g data-name="Group 639"><g data-name="Group 638" clip-path="url(#a)" transform="translate(.001)"><path data-name="Path 763" d="M74.694 115.93v-.622c-.008-3.355-2.051-4.5-5.286-4.513h-5.076v15.129h3.2v-5.372h1.943l2.236 5.372h3.432l-2.737-5.976a4.031 4.031 0 002.281-4.016m-3.225-.044c0 1.51-.823 1.993-2.276 2h-1.653v-4.45h1.653c1.473.007 2.273.486 2.276 2z"/><path data-name="Path 764" d="M120.034 115.93v-.622c-.008-3.355-2.052-4.5-5.287-4.513h-5.072v15.129h3.2v-5.372h1.944l2.235 5.372h3.432l-2.737-5.976a4.03 4.03 0 002.281-4.016m-3.226-.044c0 1.51-.823 1.993-2.276 2h-1.653v-4.45h1.659c1.474.007 2.273.486 2.276 2z"/><path data-name="Path 765" d="M144.295 117.328l-2.663-6.535h-3.5l4.5 9.838v5.291h3.226v-5.249l4.429-9.879h-3.477z"/><path data-name="Path 766" d="M155.26 110.793l-3.715 15.128h3.279l.7-3.18h4.014l.723 3.18h3.3l-3.782-15.128zm.852 9.28l1.388-6.3 1.433 6.3z"/><path data-name="Path 767" d="M230.228 110.793l-3.715 15.128h3.279l.7-3.18h4.014l.723 3.18h3.3l-3.781-15.128zm.853 9.28l1.388-6.3 1.432 6.3z"/><path data-name="Path 768" d="M191.542 110.794h-4.835v15.128h3.2v-4.7h1.739c3.25.01 5.454-1.363 5.458-4.707v-1.1c0-3.463-2.232-4.613-5.566-4.62m2.341 5.654c0 1.628-.882 2.144-2.448 2.147h-1.524v-5.157h1.524c1.57.008 2.445.492 2.448 2.1z"/><path data-name="Path 769" d="M29.051 117.033l-1.206-.407c-1.165-.392-2.028-.775-2.028-1.749-.017-.947.644-1.524 1.83-1.524a1.642 1.642 0 011.738 1.91h3.217c.123-3.1-1.843-4.642-4.938-4.642-2.845 0-4.949 1.411-4.943 4.256.006 2.743 2.025 3.859 3.772 4.448l1.315.432c1.444.49 2.046.891 2.046 2.038-.005 1.083-.987 1.568-1.958 1.568-1.555 0-2.183-.834-2.135-2.38h-3.109c-.1 3.444 1.572 5.111 5.269 5.111 3.142 0 5.023-1.655 5.029-4.428s-1.292-3.756-3.9-4.633"/><path data-name="Path 770" d="M90.896 114.268a2.274 2.274 0 011.93-.81c1.539-.01 2.368.872 2.494 2.478h3.216c-.254-3.387-2.282-5.319-5.7-5.317-3.811 0-5.743 2.329-5.738 6.124v3.2c0 3.782 1.966 6.141 5.732 6.141 3.45 0 5.417-1.825 5.7-5.2h-3.221a2.263 2.263 0 01-2.48 2.344c-1.686-.012-2.506-1.016-2.506-3.07v-3.631a3.712 3.712 0 01.576-2.261"/><path data-name="Path 771" d="M245.4 114.268a2.274 2.274 0 011.93-.81c1.539-.01 2.368.872 2.494 2.478h3.216c-.254-3.387-2.282-5.319-5.7-5.317-3.812 0-5.743 2.329-5.738 6.124v3.2c0 3.782 1.966 6.141 5.732 6.141 3.449 0 5.417-1.825 5.7-5.2h-3.221a2.263 2.263 0 01-2.48 2.344c-1.686-.012-2.506-1.016-2.506-3.07v-3.631a3.709 3.709 0 01.576-2.261"/><path data-name="Path 772" d="M54.546 110.621c-3.844 0-5.846 2.159-5.846 6.293v2.878c0 4.081 1.923 6.293 5.846 6.293 3.871 0 5.846-2.159 5.846-6.293v-2.878c0-4.081-1.923-6.293-5.846-6.293m2.607 9.461c0 1.9-.632 3.134-2.607 3.134-1.922 0-2.607-1.185-2.607-3.134v-3.457c0-1.87.632-3.159 2.607-3.159 1.922 0 2.607 1.184 2.607 3.159z"/><path data-name="Path 773" d="M129.885 110.621c-3.844 0-5.846 2.159-5.846 6.293v2.878c0 4.081 1.923 6.293 5.846 6.293 3.871 0 5.846-2.159 5.846-6.293v-2.878c0-4.081-1.923-6.293-5.846-6.293m2.607 9.461c0 1.9-.632 3.134-2.607 3.134-1.922 0-2.607-1.185-2.607-3.134v-3.457c0-1.87.632-3.159 2.607-3.159 1.922 0 2.607 1.184 2.607 3.159z"/><path data-name="Path 774" d="M276.008 117.033l-1.207-.407c-1.165-.392-2.028-.775-2.028-1.749-.017-.947.644-1.524 1.831-1.524a1.642 1.642 0 011.737 1.91h3.217c.124-3.1-1.844-4.642-4.939-4.642-2.845 0-4.949 1.411-4.942 4.256.006 2.743 2.024 3.859 3.772 4.448l1.315.432c1.444.49 2.046.891 2.046 2.038-.005 1.083-.988 1.568-1.959 1.568-1.555 0-2.183-.834-2.135-2.38h-3.107c-.1 3.444 1.572 5.111 5.269 5.111 3.143 0 5.023-1.655 5.029-4.428s-1.292-3.756-3.9-4.633"/><path data-name="Rectangle 370" d="M133.133 42.798l6.971-6.971 6.972 6.971-6.972 6.971z"/><path data-name="Path 775" d="M130.073 39.302a3.127 3.127 0 10-3.127-3.127 3.127 3.127 0 003.127 3.127"/><path data-name="Path 776" d="M121.614 35.461a3.127 3.127 0 10-3.127-3.127 3.126 3.126 0 003.127 3.127"/><path data-name="Path 777" d="M112.722 33.162a3.127 3.127 0 10-3.127-3.127 3.127 3.127 0 003.127 3.127"/><path data-name="Path 778" d="M103.688 28.998a3.126 3.126 0 103.127 3.127 3.127 3.127 0 00-3.127-3.127"/><path data-name="Path 779" d="M97.801 41.727a3.126 3.126 0 10-3.126-3.127 3.126 3.126 0 003.126 3.127"/><path data-name="Path 780" d="M96.204 50.362a3.126 3.126 0 10-3.127-3.127 3.126 3.126 0 003.127 3.127"/><path data-name="Path 781" d="M95.407 55.423a3.126 3.126 0 103.126-3.126 3.126 3.126 0 00-3.126 3.126"/><path data-name="Path 782" d="M103.078 59.149a3.126 3.126 0 103.127 3.126 3.127 3.127 0 00-3.127-3.126"/><path data-name="Path 783" d="M141.196 17.605v6.642h6.643a7.816 7.816 0 00-6.643-6.642"/><path data-name="Path 784" d="M147.844 26.43h-15.471a7.809 7.809 0 0015.466 0"/><path data-name="Path 785" d="M139.012 17.605a7.814 7.814 0 00-6.64 6.642h6.64z"/><path data-name="Path 786" d="M136.032 14.762h8.144l-3.309-6.617 6.617 3.309V3.309l-6.617 3.309 3.309-6.617h-8.144l3.308 6.617-6.617-3.309v8.145l6.617-3.309z"/><path data-name="Path 787" d="M111.6 44.31a2.714 2.714 0 001.472 2.414c-1.258 1.383-3.4 2.442-3.4 4.56v48.848h9.268V51.284c0-2.116-2.136-3.175-3.394-4.557a2.714 2.714 0 10-3.95-2.417"/><path data-name="Path 788" d="M150.133 39.302a3.127 3.127 0 10-3.126-3.127 3.127 3.127 0 003.126 3.127"/><path data-name="Path 789" d="M158.592 35.461a3.127 3.127 0 10-3.127-3.127 3.126 3.126 0 003.127 3.127"/><path data-name="Path 790" d="M167.485 33.162a3.127 3.127 0 10-3.127-3.127 3.127 3.127 0 003.127 3.127"/><path data-name="Path 791" d="M176.518 35.251a3.126 3.126 0 10-3.126-3.127 3.127 3.127 0 003.126 3.127"/><path data-name="Path 792" d="M182.409 41.727a3.126 3.126 0 10-3.126-3.127 3.127 3.127 0 003.126 3.127"/><path data-name="Path 793" d="M184.004 44.109a3.126 3.126 0 103.126 3.126 3.127 3.127 0 00-3.126-3.126"/><path data-name="Path 794" d="M181.674 52.297a3.127 3.127 0 103.126 3.126 3.127 3.127 0 00-3.126-3.126"/><path data-name="Path 795" d="M177.129 59.149a3.126 3.126 0 103.126 3.126 3.127 3.127 0 00-3.126-3.126"/><path data-name="Path 796" d="M140.104 64.525c-5.71 3.152-10.766 6.568-10.767 11.141v13.8h5.174V78.433c0-3.148 2.714-5.283 5.593-6.769 2.879 1.486 5.593 3.621 5.593 6.769V89.47h5.174v-13.8c0-4.573-5.057-7.989-10.766-11.141"/><path data-name="Path 797" d="M126.728 75.667c0-5.859 5.844-9.955 13.376-14.062 7.533 4.107 13.376 8.2 13.376 14.062v19.135h5.174V48.149h-3.528v3.134h-4.587v-3.134h-3.53v8.322H133.2v-8.322h-3.53v3.134h-4.588v-3.134h-3.528V94.8h5.174z"/><path data-name="Path 798" d="M161.263 51.284v48.848h9.268V51.284c0-2.118-2.139-3.177-3.4-4.56a2.714 2.714 0 10-2.478 0c-1.258 1.382-3.393 2.441-3.393 4.557"/><path data-name="Path 799" d="M218.403 110.793h-3.2v15.128h8.053l.69-2.753h-5.543z"/><path data-name="Path 800" d="M203.135 110.793l-3.715 15.128h3.279l.7-3.18h4.014l.722 3.18h3.3l-3.781-15.128zm.852 9.28l1.388-6.3 1.433 6.3z"/><path data-name="Path 801" d="M35.579 113.546h3.416v12.376h3.2v-12.376h3.232l.689-2.753H35.579z"/><path data-name="Path 802" d="M256.89 125.922h8.974v-2.753h-5.77v-3.521h4.547l.689-2.753h-5.236v-3.349h5.77v-2.753h-8.974z"/><path data-name="Path 803" d="M170.534 110.793h-3.2v15.128h8.053l.69-2.753h-5.543z"/><path data-name="Path 804" d="M7.584 116.895h-4.38v-6.1h-3.2v15.128h3.2v-6.189h4.38v6.189h3.2v-15.13h-3.2z"/><path data-name="Rectangle 371" d="M15.527 110.794h3.204v15.128h-3.204z"/><path data-name="Rectangle 372" d="M79.611 110.794h3.204v15.128h-3.204z"/><path data-name="Path 805" d="M74.694 115.93v-.622c-.008-3.355-2.051-4.5-5.286-4.513h-5.076v15.129h3.2v-5.372h1.943l2.236 5.372h3.432l-2.737-5.976a4.031 4.031 0 002.281-4.016m-3.225-.044c0 1.51-.823 1.993-2.276 2h-1.653v-4.45h1.653c1.473.007 2.273.486 2.276 2z"/><path data-name="Path 806" d="M120.034 115.93v-.622c-.008-3.355-2.052-4.5-5.287-4.513h-5.072v15.129h3.2v-5.372h1.944l2.235 5.372h3.432l-2.737-5.976a4.03 4.03 0 002.281-4.016m-3.226-.044c0 1.51-.823 1.993-2.276 2h-1.653v-4.45h1.659c1.474.007 2.273.486 2.276 2z"/><path data-name="Path 807" d="M144.295 117.328l-2.663-6.535h-3.5l4.5 9.838v5.291h3.226v-5.249l4.429-9.879h-3.477z"/><path data-name="Path 808" d="M155.26 110.793l-3.715 15.128h3.279l.7-3.18h4.014l.723 3.18h3.3l-3.782-15.128zm.852 9.28l1.388-6.3 1.433 6.3z"/><path data-name="Path 809" d="M230.228 110.793l-3.715 15.128h3.279l.7-3.18h4.014l.723 3.18h3.3l-3.781-15.128zm.853 9.28l1.388-6.3 1.432 6.3z"/><path data-name="Path 810" d="M191.542 110.794h-4.835v15.128h3.2v-4.7h1.739c3.25.01 5.454-1.363 5.458-4.707v-1.1c0-3.463-2.232-4.613-5.566-4.62m2.341 5.654c0 1.628-.882 2.144-2.448 2.147h-1.524v-5.157h1.524c1.57.008 2.445.492 2.448 2.1z"/><path data-name="Path 811" d="M29.051 117.033l-1.206-.407c-1.165-.392-2.028-.775-2.028-1.749-.017-.947.644-1.524 1.83-1.524a1.642 1.642 0 011.738 1.91h3.217c.123-3.1-1.843-4.642-4.938-4.642-2.845 0-4.949 1.411-4.943 4.256.006 2.743 2.025 3.859 3.772 4.448l1.315.432c1.444.49 2.046.891 2.046 2.038-.005 1.083-.987 1.568-1.958 1.568-1.555 0-2.183-.834-2.135-2.38h-3.109c-.1 3.444 1.572 5.111 5.269 5.111 3.142 0 5.023-1.655 5.029-4.428s-1.292-3.756-3.9-4.633"/><path data-name="Path 812" d="M90.896 114.268a2.274 2.274 0 011.93-.81c1.539-.01 2.368.872 2.494 2.478h3.216c-.254-3.387-2.282-5.319-5.7-5.317-3.811 0-5.743 2.329-5.738 6.124v3.2c0 3.782 1.966 6.141 5.732 6.141 3.45 0 5.417-1.825 5.7-5.2h-3.221a2.263 2.263 0 01-2.48 2.344c-1.686-.012-2.506-1.016-2.506-3.07v-3.631a3.712 3.712 0 01.576-2.261"/><path data-name="Path 813" d="M245.4 114.268a2.274 2.274 0 011.93-.81c1.539-.01 2.368.872 2.494 2.478h3.216c-.254-3.387-2.282-5.319-5.7-5.317-3.812 0-5.743 2.329-5.738 6.124v3.2c0 3.782 1.966 6.141 5.732 6.141 3.449 0 5.417-1.825 5.7-5.2h-3.221a2.263 2.263 0 01-2.48 2.344c-1.686-.012-2.506-1.016-2.506-3.07v-3.631a3.709 3.709 0 01.576-2.261"/><path data-name="Path 814" d="M54.546 110.621c-3.844 0-5.846 2.159-5.846 6.293v2.878c0 4.081 1.923 6.293 5.846 6.293 3.871 0 5.846-2.159 5.846-6.293v-2.878c0-4.081-1.923-6.293-5.846-6.293m2.607 9.461c0 1.9-.632 3.134-2.607 3.134-1.922 0-2.607-1.185-2.607-3.134v-3.457c0-1.87.632-3.159 2.607-3.159 1.922 0 2.607 1.184 2.607 3.159z"/><path data-name="Path 815" d="M129.885 110.621c-3.844 0-5.846 2.159-5.846 6.293v2.878c0 4.081 1.923 6.293 5.846 6.293 3.871 0 5.846-2.159 5.846-6.293v-2.878c0-4.081-1.923-6.293-5.846-6.293m2.607 9.461c0 1.9-.632 3.134-2.607 3.134-1.922 0-2.607-1.185-2.607-3.134v-3.457c0-1.87.632-3.159 2.607-3.159 1.922 0 2.607 1.184 2.607 3.159z"/><path data-name="Path 816" d="M276.008 117.033l-1.207-.407c-1.165-.392-2.028-.775-2.028-1.749-.017-.947.644-1.524 1.831-1.524a1.642 1.642 0 011.737 1.91h3.217c.124-3.1-1.844-4.642-4.939-4.642-2.845 0-4.949 1.411-4.942 4.256.006 2.743 2.024 3.859 3.772 4.448l1.315.432c1.444.49 2.046.891 2.046 2.038-.005 1.083-.988 1.568-1.959 1.568-1.555 0-2.183-.834-2.135-2.38h-3.107c-.1 3.444 1.572 5.111 5.269 5.111 3.143 0 5.023-1.655 5.029-4.428s-1.292-3.756-3.9-4.633"/><path data-name="Rectangle 373" d="M133.133 42.798l6.971-6.971 6.972 6.971-6.972 6.971z"/><path data-name="Path 817" d="M130.073 39.302a3.127 3.127 0 10-3.127-3.127 3.127 3.127 0 003.127 3.127"/><path data-name="Path 818" d="M121.614 35.461a3.127 3.127 0 10-3.127-3.127 3.126 3.126 0 003.127 3.127"/><path data-name="Path 819" d="M112.722 33.162a3.127 3.127 0 10-3.127-3.127 3.127 3.127 0 003.127 3.127"/><path data-name="Path 820" d="M103.688 28.998a3.126 3.126 0 103.127 3.127 3.127 3.127 0 00-3.127-3.127"/><path data-name="Path 821" d="M97.801 41.727a3.126 3.126 0 10-3.126-3.127 3.126 3.126 0 003.126 3.127"/><path data-name="Path 822" d="M96.204 50.362a3.126 3.126 0 10-3.127-3.127 3.126 3.126 0 003.127 3.127"/><path data-name="Path 823" d="M95.407 55.423a3.126 3.126 0 103.126-3.126 3.126 3.126 0 00-3.126 3.126"/><path data-name="Path 824" d="M103.078 59.149a3.126 3.126 0 103.127 3.126 3.127 3.127 0 00-3.127-3.126"/><path data-name="Path 825" d="M141.196 17.605v6.642h6.643a7.816 7.816 0 00-6.643-6.642"/><path data-name="Path 826" d="M147.844 26.43h-15.471a7.809 7.809 0 0015.466 0"/><path data-name="Path 827" d="M139.012 17.605a7.814 7.814 0 00-6.64 6.642h6.64z"/><path data-name="Path 828" d="M136.032 14.762h8.144l-3.309-6.617 6.617 3.309V3.309l-6.617 3.309 3.309-6.617h-8.144l3.308 6.617-6.617-3.309v8.145l6.617-3.309z"/><path data-name="Path 829" d="M111.6 44.31a2.714 2.714 0 001.472 2.414c-1.258 1.383-3.4 2.442-3.4 4.56v48.848h9.268V51.284c0-2.116-2.136-3.175-3.394-4.557a2.714 2.714 0 10-3.95-2.417"/><path data-name="Path 830" d="M150.133 39.302a3.127 3.127 0 10-3.126-3.127 3.127 3.127 0 003.126 3.127"/><path data-name="Path 831" d="M158.592 35.461a3.127 3.127 0 10-3.127-3.127 3.126 3.126 0 003.127 3.127"/><path data-name="Path 832" d="M167.485 33.162a3.127 3.127 0 10-3.127-3.127 3.127 3.127 0 003.127 3.127"/><path data-name="Path 833" d="M176.518 35.251a3.126 3.126 0 10-3.126-3.127 3.127 3.127 0 003.126 3.127"/><path data-name="Path 834" d="M182.409 41.727a3.126 3.126 0 10-3.126-3.127 3.127 3.127 0 003.126 3.127"/><path data-name="Path 835" d="M184.004 44.109a3.126 3.126 0 103.126 3.126 3.127 3.127 0 00-3.126-3.126"/><path data-name="Path 836" d="M181.674 52.297a3.127 3.127 0 103.126 3.126 3.127 3.127 0 00-3.126-3.126"/><path data-name="Path 837" d="M177.129 59.149a3.126 3.126 0 103.126 3.126 3.127 3.127 0 00-3.126-3.126"/><path data-name="Path 838" d="M140.104 64.525c-5.71 3.152-10.766 6.568-10.767 11.141v13.8h5.174V78.433c0-3.148 2.714-5.283 5.593-6.769 2.879 1.486 5.593 3.621 5.593 6.769V89.47h5.174v-13.8c0-4.573-5.057-7.989-10.766-11.141"/><path data-name="Path 839" d="M126.728 75.667c0-5.859 5.844-9.955 13.376-14.062 7.533 4.107 13.376 8.2 13.376 14.062v19.135h5.174V48.149h-3.528v3.134h-4.587v-3.134h-3.53v8.322H133.2v-8.322h-3.53v3.134h-4.588v-3.134h-3.528V94.8h5.174z"/><path data-name="Path 840" d="M161.263 51.284v48.848h9.268V51.284c0-2.118-2.139-3.177-3.4-4.56a2.714 2.714 0 10-2.478 0c-1.258 1.382-3.393 2.441-3.393 4.557"/></g></g></svg>