<svg xmlns="http://www.w3.org/2000/svg" viewBox="0 0 224.814 70.096">
  <g fill="#fff">
    <g data-name="Group 74">
      <path data-name="Rectangle 64" d="M28.04 29.96l4.88-4.88 4.88 4.88-4.88 4.88z"/>
      <path data-name="Path 331" d="M25.897 27.512a2.188 2.188 0 10-2.188-2.188 2.189 2.189 0 002.188 2.188"/>
      <path data-name="Path 332" d="M19.976 24.826a2.188 2.188 0 10-2.188-2.188 2.188 2.188 0 002.188 2.188"/>
      <path data-name="Path 333" d="M13.753 23.214a2.189 2.189 0 10-2.19-2.189 2.189 2.189 0 002.19 2.189"/>
      <path data-name="Path 334" d="M7.427 20.299a2.189 2.189 0 102.189 2.188 2.189 2.189 0 00-2.189-2.188"/>
      <path data-name="Path 335" d="M3.304 29.21a2.188 2.188 0 10-2.189-2.188 2.189 2.189 0 002.189 2.188"/>
      <path data-name="Path 336" d="M2.188 35.254a2.188 2.188 0 10-2.189-2.188 2.188 2.188 0 002.189 2.188"/>
      <path data-name="Path 337" d="M1.632 38.799a2.189 2.189 0 102.187-2.19 2.188 2.188 0 00-2.187 2.19"/>
      <path data-name="Path 338" d="M7 41.406a2.189 2.189 0 102.19 2.188A2.189 2.189 0 007 41.406"/>
      <path data-name="Path 339" d="M33.685 12.324v4.645h4.649a5.468 5.468 0 00-4.649-4.648"/>
      <path data-name="Path 340" d="M38.335 18.502H27.508a5.467 5.467 0 0010.827 0"/>
      <path data-name="Path 341" d="M32.156 12.324a5.469 5.469 0 00-4.648 4.648h4.648z"/>
      <path data-name="Path 342" d="M30.07 10.334h5.7l-2.316-4.632 4.632 2.316v-5.7l-4.632 2.316L35.77 0h-5.7l2.316 4.632-4.632-2.316v5.7L32.386 5.7z"/>
      <path data-name="Path 343" d="M12.966 31.019a1.9 1.9 0 001.031 1.689c-.881.968-2.378 1.709-2.378 3.192v34.2h6.488V35.9c0-1.482-1.5-2.222-2.376-3.19a1.9 1.9 0 10-2.765-1.691"/>
      <path data-name="Path 344" d="M39.941 27.512a2.188 2.188 0 10-2.188-2.188 2.189 2.189 0 002.188 2.188"/>
      <path data-name="Path 345" d="M45.863 24.826a2.188 2.188 0 10-2.188-2.188 2.188 2.188 0 002.188 2.188"/>
      <path data-name="Path 346" d="M52.087 23.214a2.189 2.189 0 10-2.189-2.189 2.188 2.188 0 002.189 2.189"/>
      <path data-name="Path 347" d="M58.413 24.676a2.189 2.189 0 10-2.19-2.189 2.189 2.189 0 002.19 2.189"/>
      <path data-name="Path 348" d="M62.534 29.21a2.188 2.188 0 10-2.188-2.188 2.189 2.189 0 002.188 2.188"/>
      <path data-name="Path 349" d="M63.65 30.877a2.188 2.188 0 102.189 2.188 2.189 2.189 0 00-2.189-2.188"/>
      <path data-name="Path 350" d="M62.015 36.61a2.189 2.189 0 102.189 2.189 2.188 2.188 0 00-2.189-2.189"/>
      <path data-name="Path 351" d="M58.838 41.406a2.189 2.189 0 102.19 2.188 2.188 2.188 0 00-2.19-2.188"/>
      <path data-name="Path 352" d="M32.92 45.169c-4 2.207-7.537 4.6-7.538 7.8v9.664h3.623v-7.727c0-2.2 1.9-3.7 3.915-4.738 2.015 1.04 3.915 2.535 3.915 4.738v7.727h3.622v-9.665c0-3.2-3.54-5.592-7.537-7.8"/>
      <path data-name="Path 353" d="M23.556 52.968c0-4.1 4.091-6.969 9.364-9.844 5.273 2.875 9.363 5.743 9.363 9.844v13.4h3.623V33.707h-2.471v2.194h-3.21v-2.194h-2.472v5.826h-9.666v-5.825h-2.471v2.194h-3.212v-2.194h-2.47v32.657h3.622z"/>
      <path data-name="Path 354" d="M47.733 35.9v34.194h6.485V35.9c0-1.483-1.5-2.225-2.378-3.192a1.9 1.9 0 10-1.735 0c-.88.967-2.375 1.708-2.375 3.19"/>
    </g>
    <g data-name="Group 75">
      <path data-name="Path 355" d="M106.31 31.906h3.006v10.89h2.819v-10.89h2.844l.606-2.422h-9.276z"/>
      <path data-name="Path 356" d="M81.677 34.852h-3.854v-5.367h-2.82v13.312h2.82v-5.446h3.854v5.446h2.819V29.485h-2.819z"/>
      <path data-name="Rectangle 65" d="M88.666 29.483h2.819v13.312h-2.819z"/>
      <path data-name="Rectangle 66" d="M145.056 29.483h2.819v13.312h-2.819z"/>
      <path data-name="Path 357" d="M140.734 34.004v-.549c-.007-2.952-1.8-3.958-4.652-3.97h-4.463v13.312h2.82V38.07h1.709l1.967 4.727h3.019l-2.41-5.257a3.549 3.549 0 002.008-3.535m-2.838-.038c0 1.329-.725 1.754-2 1.757h-1.46v-3.912h1.454c1.3.007 2 .428 2 1.757z"/>
      <path data-name="Path 358" d="M100.567 34.972l-1.062-.357c-1.026-.345-1.785-.683-1.785-1.54-.014-.833.567-1.341 1.61-1.341a1.445 1.445 0 011.53 1.681h2.83c.109-2.731-1.622-4.085-4.345-4.085-2.5 0-4.355 1.242-4.35 3.745.005 2.414 1.782 3.4 3.319 3.914l1.158.38c1.271.432 1.8.785 1.8 1.793 0 .953-.869 1.38-1.723 1.38-1.369 0-1.922-.733-1.879-2.093h-2.734c-.088 3.031 1.384 4.5 4.636 4.5 2.765 0 4.419-1.456 4.425-3.9s-1.137-3.306-3.43-4.077"/>
      <path data-name="Path 359" d="M154.986 32.543a2 2 0 011.7-.713c1.355-.008 2.084.767 2.195 2.181h2.831a4.611 4.611 0 00-5.02-4.679c-3.354 0-5.054 2.049-5.049 5.388v2.817c0 3.328 1.731 5.4 5.044 5.4 3.035 0 4.766-1.605 5.017-4.574h-2.835a1.991 1.991 0 01-2.182 2.063c-1.483-.011-2.2-.894-2.2-2.7v-3.2a3.262 3.262 0 01.507-1.989"/>
      <path data-name="Path 360" d="M123 29.332c-3.382 0-5.143 1.9-5.143 5.538v2.532c0 3.591 1.692 5.538 5.143 5.538 3.406 0 5.144-1.9 5.144-5.538v-2.53c0-3.592-1.691-5.538-5.144-5.538m2.294 8.324c0 1.669-.556 2.758-2.294 2.758-1.69 0-2.293-1.043-2.293-2.758v-3.042c0-1.646.556-2.78 2.293-2.78 1.691 0 2.294 1.042 2.294 2.78z"/>
    </g>
    <g data-name="Group 76">
      <path data-name="Path 361" d="M170.691 49.366h-2.82V62.68h7.087l.607-2.423h-4.875z"/>
      <path data-name="Path 362" d="M157.252 49.366l-3.27 13.314h2.886l.616-2.8h3.533l.635 2.8h2.9l-3.327-13.314zm.75 8.168l1.222-5.545 1.26 5.545z"/>
      <path data-name="Path 363" d="M204.557 62.681h7.9v-2.423h-5.078v-3.1h4l.607-2.423h-4.608v-2.947h5.072v-2.422h-7.9z"/>
      <path data-name="Path 364" d="M128.558 49.366h-2.819V62.68h7.087l.607-2.423h-4.875z"/>
      <path data-name="Path 365" d="M84.119 53.887v-.549c-.007-2.952-1.806-3.958-4.653-3.971h-4.463v13.314h2.82v-4.727h1.71l1.967 4.727h3.02l-2.409-5.259a3.547 3.547 0 002.008-3.534m-2.839-.038c0 1.329-.724 1.754-2 1.757h-1.455v-3.913h1.455c1.3.007 2 .428 2 1.757z"/>
      <path data-name="Path 366" d="M105.469 55.118l-2.343-5.751h-3.08l3.958 8.657v4.656h2.839v-4.619l3.9-8.694h-3.06z"/>
      <path data-name="Path 367" d="M115.119 49.366l-3.27 13.314h2.886l.616-2.8h3.533l.635 2.8h2.9l-3.327-13.314zm.75 8.168l1.222-5.545 1.26 5.545z"/>
      <path data-name="Path 368" d="M181.093 49.366l-3.269 13.314h2.886l.616-2.8h3.533l.635 2.8h2.9l-3.327-13.314zm.751 8.168l1.222-5.545 1.26 5.545z"/>
      <path data-name="Path 369" d="M147.048 49.368h-4.255v13.313h2.82v-4.139h1.531c2.86.009 4.8-1.2 4.8-4.143v-.966c0-3.047-1.965-4.06-4.9-4.065m2.061 4.975c0 1.432-.777 1.887-2.155 1.89h-1.342v-4.538h1.348c1.382.008 2.151.433 2.155 1.852z"/>
      <path data-name="Path 370" d="M194.446 52.427a2 2 0 011.7-.713c1.355-.008 2.085.767 2.2 2.181h2.829c-.223-2.981-2.008-4.681-5.019-4.679-3.355 0-5.055 2.049-5.051 5.389v2.816c0 3.329 1.731 5.4 5.044 5.4 3.036 0 4.767-1.605 5.018-4.574h-2.835a1.992 1.992 0 01-2.192 2.065c-1.483-.011-2.2-.894-2.2-2.7v-3.2a3.263 3.263 0 01.507-1.989"/>
      <path data-name="Path 371" d="M92.787 49.212c-3.383 0-5.144 1.9-5.144 5.539v2.533c0 3.591 1.692 5.538 5.144 5.538 3.407 0 5.144-1.9 5.144-5.538v-2.533c0-3.592-1.691-5.539-5.144-5.539m2.294 8.326c0 1.67-.557 2.758-2.294 2.758-1.692 0-2.294-1.043-2.294-2.758v-3.042c0-1.646.556-2.78 2.294-2.78 1.691 0 2.294 1.042 2.294 2.78z"/>
      <path data-name="Path 372" d="M221.381 54.858l-1.062-.358c-1.026-.344-1.785-.682-1.785-1.54-.014-.833.567-1.341 1.611-1.341a1.444 1.444 0 011.529 1.681h2.832c.109-2.731-1.623-4.085-4.346-4.085-2.5 0-4.355 1.243-4.35 3.745.005 2.415 1.782 3.4 3.32 3.915l1.157.38c1.271.431 1.8.783 1.8 1.793 0 .953-.869 1.38-1.723 1.38-1.369 0-1.921-.733-1.88-2.095h-2.734c-.088 3.032 1.384 4.5 4.637 4.5 2.765 0 4.421-1.457 4.426-3.9s-1.138-3.306-3.432-4.076"/>
    </g>
  </g>
</svg>
